<svg width="28" height="24" viewBox="0 0 28 24" fill="none" xmlns="http://www.w3.org/2000/svg">
<path fill-rule="evenodd" clip-rule="evenodd" d="M25.3015 7.70217C25.8586 7.70217 26.3759 7.9503 26.7206 8.38282C27.0591 8.80749 27.1839 9.35342 27.0632 9.88078L24.3781 21.6091C24.1906 22.4281 23.4662 23 22.6164 23H5.49184C4.64205 23 3.9176 22.4281 3.7301 21.6091L1.04498 9.88083C0.924279 9.35347 1.04916 8.80754 1.3876 8.38287C1.73236 7.9503 2.24958 7.70223 2.80672 7.70223H7.8348L10.5613 1.459C10.7304 1.07181 11.1813 0.895022 11.5684 1.06416C11.9555 1.23326 12.1322 1.68413 11.9632 2.07127L9.50409 7.70223H18.6041L16.145 2.07127C15.9759 1.68413 16.1527 1.2332 16.5398 1.06416C16.927 0.895022 17.3779 1.07191 17.5469 1.459L20.2734 7.70217H25.3015ZM5.49184 21.4702H22.6164C22.7463 21.4702 22.8601 21.385 22.887 21.2677L25.5721 9.53939C25.5932 9.44745 25.5578 9.3782 25.5244 9.33628C25.4934 9.29733 25.4232 9.232 25.3016 9.232H20.9416L21.1419 9.69078C21.311 10.0779 21.1342 10.5288 20.7471 10.6979C20.6475 10.7414 20.5436 10.762 20.4414 10.762C20.1466 10.762 19.8656 10.5906 19.74 10.3031L19.2723 9.23211H8.83604L8.36828 10.3031C8.24274 10.5905 7.96177 10.762 7.66693 10.762C7.56469 10.762 7.46087 10.7414 7.36123 10.6979C6.97409 10.5288 6.79735 10.0779 6.96639 9.69078L7.16674 9.232H2.80672C2.68516 9.232 2.61494 9.29733 2.58394 9.33628C2.55048 9.37815 2.51515 9.4474 2.53621 9.53944L5.22132 21.2676C5.2482 21.385 5.36196 21.4702 5.49184 21.4702ZM8.69971 13.3113C8.69971 12.8889 9.04217 12.5464 9.4646 12.5464C9.88707 12.5464 10.2295 12.8889 10.2295 13.3113V18.9205C10.2295 19.3429 9.88702 19.6853 9.4646 19.6853C9.04217 19.6853 8.69971 19.3429 8.69971 18.9205V13.3113ZM14.054 12.5464C13.6315 12.5464 13.2891 12.8889 13.2891 13.3113V18.9205C13.2891 19.3429 13.6315 19.6853 14.054 19.6853C14.4764 19.6853 14.8188 19.3429 14.8188 18.9205V13.3113C14.8188 12.8889 14.4764 12.5464 14.054 12.5464ZM17.8784 13.3113C17.8784 12.8889 18.2209 12.5464 18.6433 12.5464C19.0657 12.5464 19.4081 12.8889 19.4082 13.3113V18.9205C19.4082 19.3429 19.0657 19.6853 18.6433 19.6853C18.2209 19.6853 17.8784 19.3429 17.8784 18.9205V13.3113Z" fill="white"/>
<path d="M26.7206 8.38282L26.877 8.25818L26.877 8.25816L26.7206 8.38282ZM27.0632 9.88078L27.2582 9.92542L27.2582 9.9254L27.0632 9.88078ZM24.3781 21.6091L24.5731 21.6538L24.5731 21.6538L24.3781 21.6091ZM3.7301 21.6091L3.53514 21.6538L3.53514 21.6538L3.7301 21.6091ZM1.04498 9.88083L0.85002 9.92545L0.850023 9.92547L1.04498 9.88083ZM1.3876 8.38287L1.2312 8.25822L1.23119 8.25823L1.3876 8.38287ZM7.8348 7.70223V7.90223H7.96569L8.01808 7.78227L7.8348 7.70223ZM10.5613 1.459L10.7446 1.53904L10.7446 1.53902L10.5613 1.459ZM11.5684 1.06416L11.4883 1.24743L11.4883 1.24744L11.5684 1.06416ZM11.9632 2.07127L12.1465 2.15131L12.1465 2.1513L11.9632 2.07127ZM9.50409 7.70223L9.32081 7.62218L9.19851 7.90223H9.50409V7.70223ZM18.6041 7.70223V7.90223H18.9097L18.7874 7.62218L18.6041 7.70223ZM16.145 2.07127L16.3283 1.99122L16.3283 1.99122L16.145 2.07127ZM16.5398 1.06416L16.6199 1.24745L16.6199 1.24744L16.5398 1.06416ZM17.5469 1.459L17.3636 1.53904L17.3636 1.53904L17.5469 1.459ZM20.2734 7.70217L20.0901 7.78222L20.1425 7.90217H20.2734V7.70217ZM22.887 21.2677L23.0819 21.3124L23.0819 21.3123L22.887 21.2677ZM25.5721 9.53939L25.3772 9.49473L25.3772 9.49475L25.5721 9.53939ZM25.5244 9.33628L25.3679 9.46082L25.368 9.46092L25.5244 9.33628ZM20.9416 9.232V9.032H20.636L20.7583 9.31204L20.9416 9.232ZM21.1419 9.69078L20.9586 9.77082L20.9586 9.77084L21.1419 9.69078ZM20.7471 10.6979L20.6671 10.5146L20.667 10.5146L20.7471 10.6979ZM19.74 10.3031L19.9233 10.2231L19.9233 10.2231L19.74 10.3031ZM19.2723 9.23211L19.4556 9.15206L19.4032 9.03211H19.2723V9.23211ZM8.83604 9.23211V9.03211H8.70514L8.65275 9.15206L8.83604 9.23211ZM8.36828 10.3031L8.55156 10.3832L8.55156 10.3832L8.36828 10.3031ZM7.36123 10.6979L7.44132 10.5146L7.44128 10.5146L7.36123 10.6979ZM6.96639 9.69078L6.78311 9.61074L6.7831 9.61075L6.96639 9.69078ZM7.16674 9.232L7.35003 9.31204L7.47232 9.032H7.16674V9.232ZM2.58394 9.33628L2.74018 9.46113L2.74043 9.46082L2.58394 9.33628ZM2.53621 9.53944L2.34124 9.58405L2.34125 9.58407L2.53621 9.53944ZM5.22132 21.2676L5.41628 21.223L5.41628 21.223L5.22132 21.2676ZM19.4082 13.3113L19.6082 13.3113L19.6082 13.3113L19.4082 13.3113ZM26.877 8.25816C26.494 7.77765 25.919 7.50217 25.3015 7.50217V7.90217C25.7983 7.90217 26.2577 8.12296 26.5642 8.50749L26.877 8.25816ZM27.2582 9.9254C27.3925 9.33842 27.2532 8.73024 26.877 8.25818L26.5642 8.50747C26.8649 8.88474 26.9753 9.36841 26.8683 9.83616L27.2582 9.9254ZM24.5731 21.6538L27.2582 9.92542L26.8683 9.83615L24.1832 21.5645L24.5731 21.6538ZM22.6164 23.2C23.5579 23.2 24.3644 22.5651 24.5731 21.6538L24.1832 21.5645C24.0168 22.291 23.3745 22.8 22.6164 22.8V23.2ZM5.49184 23.2H22.6164V22.8H5.49184V23.2ZM3.53514 21.6538C3.7438 22.5651 4.55035 23.2 5.49184 23.2V22.8C4.73375 22.8 4.09139 22.291 3.92505 21.5645L3.53514 21.6538ZM0.850023 9.92547L3.53514 21.6538L3.92505 21.5645L1.23993 9.8362L0.850023 9.92547ZM1.23119 8.25823C0.854979 8.73029 0.715676 9.33847 0.85002 9.92545L1.23994 9.83621C1.13288 9.36846 1.24334 8.88479 1.544 8.50752L1.23119 8.25823ZM2.80672 7.50223C2.1892 7.50223 1.61422 7.77764 1.2312 8.25822L1.544 8.50753C1.8505 8.12297 2.30995 7.90223 2.80672 7.90223V7.50223ZM7.8348 7.50223H2.80672V7.90223H7.8348V7.50223ZM10.378 1.37896L7.65151 7.62218L8.01808 7.78227L10.7446 1.53904L10.378 1.37896ZM11.6485 0.880897C11.1601 0.667508 10.5913 0.890555 10.378 1.37898L10.7446 1.53902C10.8695 1.25307 11.2025 1.12253 11.4883 1.24743L11.6485 0.880897ZM12.1465 2.1513C12.3597 1.66296 12.1368 1.09419 11.6484 0.880884L11.4883 1.24744C11.7742 1.37232 11.9048 1.70531 11.7799 1.99124L12.1465 2.1513ZM9.68737 7.78227L12.1465 2.15131L11.7799 1.99122L9.32081 7.62218L9.68737 7.78227ZM18.6041 7.50223H9.50409V7.90223H18.6041V7.50223ZM15.9617 2.15131L18.4208 7.78227L18.7874 7.62218L16.3283 1.99122L15.9617 2.15131ZM16.4598 0.880875C15.9714 1.09412 15.7484 1.66296 15.9617 2.15132L16.3283 1.99122C16.2034 1.70531 16.334 1.37229 16.6199 1.24745L16.4598 0.880875ZM17.7302 1.37896C17.517 0.890688 16.9482 0.667499 16.4598 0.880893L16.6199 1.24744C16.9058 1.12254 17.2388 1.25314 17.3636 1.53904L17.7302 1.37896ZM20.4567 7.62213L17.7302 1.37896L17.3636 1.53904L20.0901 7.78222L20.4567 7.62213ZM25.3015 7.50217H20.2734V7.90217H25.3015V7.50217ZM22.6164 21.2702H5.49184V21.6702H22.6164V21.2702ZM22.6921 21.223C22.6882 21.2396 22.6635 21.2702 22.6164 21.2702V21.6702C22.829 21.6702 23.0319 21.5305 23.0819 21.3124L22.6921 21.223ZM25.3772 9.49475L22.692 21.223L23.0819 21.3123L25.7671 9.58402L25.3772 9.49475ZM25.368 9.46092C25.3731 9.46734 25.376 9.47309 25.3774 9.47746C25.378 9.47943 25.3783 9.48135 25.3784 9.4835C25.3785 9.48558 25.3784 9.48919 25.3772 9.49473L25.7671 9.58404C25.8061 9.41345 25.7378 9.28318 25.6808 9.21165L25.368 9.46092ZM25.3016 9.432C25.3246 9.432 25.3383 9.43773 25.3468 9.44263C25.3567 9.44836 25.3638 9.45571 25.3679 9.46082L25.6809 9.21174C25.6269 9.14392 25.5047 9.032 25.3016 9.032V9.432ZM20.9416 9.432H25.3016V9.032H20.9416V9.432ZM21.3252 9.61074L21.1249 9.15196L20.7583 9.31204L20.9586 9.77082L21.3252 9.61074ZM20.8271 10.8812C21.3155 10.6679 21.5385 10.0991 21.3252 9.61073L20.9586 9.77084C21.0835 10.0567 20.953 10.3898 20.6671 10.5146L20.8271 10.8812ZM20.4414 10.962C20.5706 10.962 20.7018 10.936 20.8272 10.8811L20.667 10.5146C20.5931 10.5469 20.5166 10.562 20.4414 10.562V10.962ZM19.5568 10.3831C19.7153 10.7461 20.0699 10.962 20.4414 10.962V10.562C20.2232 10.562 20.0159 10.4351 19.9233 10.2231L19.5568 10.3831ZM19.089 9.31215L19.5568 10.3832L19.9233 10.2231L19.4556 9.15206L19.089 9.31215ZM8.83604 9.43211H19.2723V9.03211H8.83604V9.43211ZM8.55156 10.3832L9.01932 9.31215L8.65275 9.15206L8.185 10.2231L8.55156 10.3832ZM7.66693 10.962C8.0384 10.962 8.39306 10.746 8.55156 10.3832L8.185 10.2231C8.09241 10.435 7.88513 10.562 7.66693 10.562V10.962ZM7.28113 10.8811C7.40652 10.9359 7.53765 10.962 7.66693 10.962V10.562C7.59172 10.562 7.51522 10.5469 7.44132 10.5146L7.28113 10.8811ZM6.7831 9.61075C6.56987 10.0991 6.79281 10.6679 7.28117 10.8812L7.44128 10.5146C7.15537 10.3897 7.02483 10.0567 7.14968 9.77082L6.7831 9.61075ZM6.98346 9.15196L6.78311 9.61074L7.14968 9.77082L7.35003 9.31204L6.98346 9.15196ZM2.80672 9.432H7.16674V9.032H2.80672V9.432ZM2.74043 9.46082C2.7445 9.45571 2.75166 9.44836 2.76156 9.44263C2.77002 9.43773 2.78367 9.432 2.80672 9.432V9.032C2.60366 9.032 2.48142 9.14392 2.42744 9.21175L2.74043 9.46082ZM2.73117 9.49483C2.72988 9.48922 2.72979 9.48556 2.72989 9.48344C2.72998 9.48126 2.73034 9.47933 2.73093 9.47738C2.73225 9.47306 2.73517 9.4674 2.74018 9.46113L2.42769 9.21144C2.37033 9.28322 2.30222 9.41351 2.34124 9.58405L2.73117 9.49483ZM5.41628 21.223L2.73116 9.4948L2.34125 9.58407L5.02637 21.3123L5.41628 21.223ZM5.49184 21.2702C5.44473 21.2702 5.42008 21.2396 5.41628 21.223L5.02637 21.3123C5.07631 21.5304 5.2792 21.6702 5.49184 21.6702V21.2702ZM9.4646 12.3464C8.93172 12.3464 8.49971 12.7784 8.49971 13.3113H8.89971C8.89971 12.9993 9.15263 12.7464 9.4646 12.7464V12.3464ZM10.4295 13.3113C10.4295 12.7784 9.99754 12.3464 9.4646 12.3464V12.7464C9.7766 12.7464 10.0295 12.9993 10.0295 13.3113H10.4295ZM10.4295 18.9205V13.3113H10.0295V18.9205H10.4295ZM9.4646 19.8853C9.99748 19.8853 10.4295 19.4533 10.4295 18.9205H10.0295C10.0295 19.2324 9.77656 19.4853 9.4646 19.4853V19.8853ZM8.49971 18.9205C8.49971 19.4533 8.93172 19.8853 9.4646 19.8853V19.4853C9.15263 19.4853 8.89971 19.2324 8.89971 18.9205H8.49971ZM8.49971 13.3113V18.9205H8.89971V13.3113H8.49971ZM13.4891 13.3113C13.4891 12.9993 13.742 12.7464 14.054 12.7464V12.3464C13.5211 12.3464 13.0891 12.7784 13.0891 13.3113H13.4891ZM13.4891 18.9205V13.3113H13.0891V18.9205H13.4891ZM14.054 19.4853C13.742 19.4853 13.4891 19.2324 13.4891 18.9205H13.0891C13.0891 19.4533 13.5211 19.8853 14.054 19.8853V19.4853ZM14.6188 18.9205C14.6188 19.2324 14.3659 19.4853 14.054 19.4853V19.8853C14.5868 19.8853 15.0188 19.4533 15.0188 18.9205H14.6188ZM14.6188 13.3113V18.9205H15.0188V13.3113H14.6188ZM14.054 12.7464C14.3659 12.7464 14.6188 12.9993 14.6188 13.3113H15.0188C15.0188 12.7784 14.5868 12.3464 14.054 12.3464V12.7464ZM18.6433 12.3464C18.1104 12.3464 17.6784 12.7784 17.6784 13.3113H18.0784C18.0784 12.9993 18.3313 12.7464 18.6433 12.7464V12.3464ZM19.6082 13.3113C19.6081 12.7784 19.1762 12.3464 18.6433 12.3464V12.7464C18.9552 12.7464 19.2082 12.9993 19.2082 13.3113L19.6082 13.3113ZM19.6082 18.9205V13.3113H19.2082V18.9205H19.6082ZM18.6433 19.8853C19.1762 19.8853 19.6082 19.4533 19.6082 18.9205H19.2082C19.2082 19.2324 18.9553 19.4853 18.6433 19.4853V19.8853ZM17.6784 18.9205C17.6784 19.4533 18.1104 19.8853 18.6433 19.8853V19.4853C18.3313 19.4853 18.0784 19.2324 18.0784 18.9205H17.6784ZM17.6784 13.3113V18.9205H18.0784V13.3113H17.6784Z" fill="white"/>
</svg>
