<svg width="17" height="17" viewBox="0 0 17 17" fill="none" xmlns="http://www.w3.org/2000/svg">
<path fill-rule="evenodd" clip-rule="evenodd" d="M8.5 17C13.1944 17 17 13.1944 17 8.5C17 3.80558 13.1944 0 8.5 0C3.80558 0 0 3.80558 0 8.5C0 13.1944 3.80558 17 8.5 17ZM8.5 15.3C12.2556 15.3 15.3 12.2556 15.3 8.5C15.3 4.74446 12.2556 1.7 8.5 1.7C4.74446 1.7 1.7 4.74446 1.7 8.5C1.7 12.2556 4.74446 15.3 8.5 15.3ZM6.8002 4.25C6.33075 4.25 5.9502 4.63056 5.9502 5.1V8.85645C5.9502 9.59847 6.55172 10.2 7.29374 10.2H11.0502C11.5196 10.2 11.9002 9.81944 11.9002 9.35C11.9002 8.88056 11.5196 8.5 11.0502 8.5H8.21345C7.90237 8.5 7.6502 8.24782 7.6502 7.93675V5.1C7.6502 4.63056 7.26964 4.25 6.8002 4.25Z" fill="black"/>
</svg>
