<svg width="14" height="14" viewBox="0 0 14 14" fill="none" xmlns="http://www.w3.org/2000/svg">
<path fill-rule="evenodd" clip-rule="evenodd" d="M0.707108 12.0208C0.316605 12.4113 0.316605 13.0445 0.707108 13.435C1.09767 13.8255 1.73079 13.8255 2.12135 13.435L7.071 8.48534L12.0207 13.435C12.4112 13.8255 13.0444 13.8255 13.4349 13.435C13.8254 13.0445 13.8254 12.4113 13.4349 12.0208L8.48524 7.07114L13.4351 2.12129C13.8256 1.73077 13.8256 1.0976 13.4351 0.707079C13.0445 0.316553 12.4113 0.316553 12.0208 0.707079L7.071 5.65691L2.12117 0.707094C1.73067 0.316568 1.09749 0.316568 0.706985 0.707094C0.316422 1.09762 0.316422 1.73078 0.706985 2.12131L5.65681 7.07111L0.707108 12.0208Z" fill="white"/>
</svg>
