<svg width="12" height="14" viewBox="0 0 12 14" fill="none" xmlns="http://www.w3.org/2000/svg">
<path fill-rule="evenodd" clip-rule="evenodd" d="M3.60293 0.75C3.71394 0.318693 4.10547 0 4.57143 0H7.42857C7.89453 0 8.28606 0.318693 8.39707 0.75H11C11.5523 0.75 12 1.19772 12 1.75C12 2.30228 11.5523 2.75 11 2.75H1C0.447715 2.75 0 2.30228 0 1.75C0 1.19772 0.447715 0.75 1 0.75H3.60293ZM1.71429 3.75C2.26657 3.75 2.71429 4.19772 2.71429 4.75V12H9.28571V4.75C9.28571 4.19772 9.73343 3.75 10.2857 3.75C10.838 3.75 11.2857 4.19772 11.2857 4.75V12.25C11.2857 12.6423 11.1931 13.1222 10.8313 13.5022C10.4607 13.8912 9.97645 14 9.57143 14H2.42857C2.02355 14 1.53927 13.8912 1.16872 13.5022C0.806858 13.1222 0.714286 12.6423 0.714286 12.25V4.75C0.714286 4.19772 1.162 3.75 1.71429 3.75Z" fill="#6B6B6B"/>
</svg>
