<svg width="14" height="14" viewBox="0 0 14 14" fill="none" xmlns="http://www.w3.org/2000/svg">
<path d="M12.8244 2.2848C12.677 1.84258 12.4558 1.47406 12.0873 1.10555C11.7188 0.737032 11.3503 0.515922 10.9081 0.368516C10.4659 0.22111 10.0236 0.0737032 9.28661 0.0737032C8.62328 0 8.40217 0 6.63329 0C4.86441 0 4.6433 0 3.90627 0.0737032C3.24294 0.0737032 2.72702 0.22111 2.2848 0.368516C1.84258 0.515922 1.47406 0.737032 1.10555 1.10555C0.737033 1.47406 0.515923 1.84258 0.368517 2.2848C0.221111 2.72702 0.0737038 3.16924 0.0737038 3.90627C0.0737038 4.5696 0 4.79071 0 6.63329C0 8.40217 5.58794e-07 8.62327 0.0737038 9.36031C0.0737038 10.0236 0.221111 10.5396 0.368517 10.9818C0.515923 11.424 0.737033 11.7925 1.10555 12.161C1.47406 12.5295 1.84258 12.7507 2.2848 12.8981C2.72702 13.0455 3.16924 13.1929 3.90627 13.1929C4.5696 13.1929 4.79071 13.2666 6.63329 13.2666C8.40217 13.2666 8.62328 13.2666 9.36031 13.1929C10.0236 13.1929 10.5396 13.0455 10.9818 12.8981C11.424 12.7507 11.7925 12.5295 12.161 12.161C12.5295 11.7925 12.7507 11.424 12.8981 10.9818C13.0455 10.5396 13.1929 10.0973 13.1929 9.36031C13.1929 8.69698 13.2666 8.47587 13.2666 6.63329C13.2666 4.86441 13.2666 4.6433 13.1929 3.90627C13.1192 3.16924 12.9718 2.65332 12.8244 2.2848ZM11.9399 9.2129C11.9399 9.87623 11.7925 10.171 11.7188 10.3922C11.5714 10.687 11.424 10.9081 11.2029 11.1292C10.9818 11.3503 10.7607 11.4977 10.4659 11.6451C10.2447 11.7188 9.87623 11.8662 9.28661 11.8662C8.62328 11.8662 8.40217 11.9399 6.63329 11.9399C4.86441 11.9399 4.6433 11.9399 3.97997 11.8662C3.31665 11.8662 3.02183 11.7188 2.80072 11.6451C2.50591 11.4977 2.2848 11.3503 2.06369 11.1292C1.84258 10.9081 1.69517 10.687 1.54777 10.3922C1.47406 10.171 1.32666 9.80253 1.32666 9.2129C1.32666 8.54957 1.25296 8.32846 1.25296 6.55959C1.25296 4.79071 1.25296 4.5696 1.32666 3.90627C1.32666 3.24294 1.47406 2.94813 1.54777 2.72702C1.69517 2.43221 1.84258 2.2111 2.06369 1.98999C2.2848 1.76888 2.50591 1.62147 2.80072 1.47406C3.02183 1.40036 3.39035 1.25295 3.97997 1.25295C4.6433 1.25295 4.86441 1.17925 6.63329 1.17925C8.40217 1.17925 8.62328 1.17925 9.28661 1.25295C9.94993 1.25295 10.2447 1.40036 10.4659 1.47406C10.7607 1.62147 10.9818 1.76888 11.2029 1.98999C11.424 2.2111 11.5714 2.43221 11.7188 2.72702C11.7925 2.94813 11.9399 3.31664 11.9399 3.90627C11.9399 4.5696 12.0136 4.79071 12.0136 6.55959C12.0136 8.25476 12.0136 8.47587 11.9399 9.2129ZM6.63329 3.16924C4.79071 3.16924 3.24294 4.6433 3.24294 6.55959C3.24294 8.40217 4.71701 9.94993 6.63329 9.94993C8.47587 9.94993 10.0236 8.47587 10.0236 6.55959C10.0236 4.717 8.47587 3.16924 6.63329 3.16924ZM6.63329 8.69698C5.45404 8.69698 4.42219 7.73884 4.42219 6.48588C4.42219 5.30663 5.38033 4.27479 6.63329 4.27479C7.81254 4.27479 8.84439 5.23293 8.84439 6.48588C8.84439 7.73884 7.81254 8.69698 6.63329 8.69698ZM10.171 2.2848C9.72882 2.2848 9.36031 2.65332 9.36031 3.09553C9.36031 3.53775 9.72882 3.90627 10.171 3.90627C10.6133 3.90627 10.9818 3.53775 10.9818 3.09553C10.9081 2.65332 10.5396 2.2848 10.171 2.2848Z" fill="white"/>
</svg>
