<svg width="15" height="11" viewBox="0 0 15 11" fill="none" xmlns="http://www.w3.org/2000/svg">
<path d="M13.6816 0.226562H1.31836C0.589951 0.226562 0 0.820176 0 1.54492V9.45508C0 10.1841 0.594287 10.7734 1.31836 10.7734H13.6816C14.404 10.7734 15 10.1866 15 9.45508V1.54492C15 0.821465 14.4124 0.226562 13.6816 0.226562ZM13.497 1.10547C13.2277 1.37339 8.59228 5.98437 8.43223 6.14356C8.1832 6.39259 7.85215 6.5297 7.5 6.5297C7.14785 6.5297 6.8168 6.39256 6.56695 6.14274C6.45932 6.03566 1.87509 1.47561 1.50299 1.10547H13.497ZM0.878906 9.27619V1.72437L4.67689 5.50234L0.878906 9.27619ZM1.50354 9.89453L5.30004 6.12218L5.9463 6.76504C6.36132 7.18006 6.9131 7.4086 7.5 7.4086C8.0869 7.4086 8.63868 7.18006 9.05288 6.76586L9.69996 6.12218L13.4965 9.89453H1.50354ZM14.1211 9.27619L10.3231 5.50234L14.1211 1.72437V9.27619Z" fill="white"/>
</svg>
