<svg width="22" height="22" viewBox="0 0 22 22" fill="none" xmlns="http://www.w3.org/2000/svg">
<path fill-rule="evenodd" clip-rule="evenodd" d="M18.6638 3.32019C20.419 5.07534 21.5612 7.28089 21.9745 9.70466C22.0348 10.0436 21.8027 10.3686 21.4637 10.4197C21.46 10.4202 21.4563 10.4207 21.4526 10.4211C21.42 10.4253 21.3903 10.429 21.3569 10.429C21.0551 10.429 20.7904 10.2154 20.7394 9.90897C20.3725 7.74521 19.351 5.77183 17.7816 4.20241C16.2122 2.63764 14.2388 1.61148 12.0751 1.24466C11.7315 1.1843 11.5039 0.863915 11.5597 0.520314C11.62 0.181357 11.9404 -0.0508058 12.2794 0.0095565C14.7031 0.422806 16.9087 1.56505 18.6638 3.32019ZM17.387 13.6282C16.9367 13.1592 16.3934 12.9084 15.8176 12.9084C15.2465 12.9084 14.6986 13.1545 14.2296 13.6235L12.7624 15.0861C12.6826 15.0432 12.6029 15.0023 12.5245 14.962L12.5244 14.962L12.5243 14.962C12.4841 14.9413 12.4442 14.9209 12.4048 14.9004C12.2377 14.8168 12.0798 14.7379 11.9452 14.6543C10.5708 13.7814 9.32172 12.6438 8.12376 11.1719C7.54336 10.4382 7.15332 9.82069 6.87008 9.19385C7.2141 8.87919 7.53538 8.55317 7.84761 8.23633L7.94732 8.13519C8.01229 8.07021 8.07727 8.00408 8.14225 7.93794L8.14233 7.93786L8.14249 7.93769C8.20744 7.87158 8.2724 7.80546 8.33735 7.74051C9.31243 6.76543 9.31243 5.50246 8.33735 4.52738L7.06974 3.25977L7.06972 3.25975L7.06965 3.25968C6.92574 3.11577 6.77719 2.96722 6.63792 2.81866C6.35933 2.53078 6.0668 2.23361 5.76499 1.95502C5.3146 1.50927 4.77598 1.27246 4.2095 1.27246C3.64303 1.27246 3.09512 1.50927 2.6308 1.95502L2.62151 1.96431L1.0428 3.55694C0.448469 4.15128 0.109512 4.87562 0.0352196 5.71605C-0.0762184 7.07188 0.323101 8.33484 0.629556 9.16134C1.38176 11.1904 2.50543 13.071 4.18164 15.0861C6.21539 17.5146 8.66238 19.4322 11.4576 20.7834C12.5256 21.2895 13.951 21.8885 15.5437 21.9906C15.6412 21.9953 15.7433 21.9999 15.8362 21.9999C16.9088 21.9999 17.8096 21.6145 18.5154 20.8484C18.5177 20.8438 18.5212 20.8403 18.5246 20.8368C18.5281 20.8333 18.5316 20.8298 18.5339 20.8252C18.7575 20.5543 19.0129 20.3074 19.2817 20.0474L19.3465 19.9848C19.5462 19.7944 19.7505 19.5947 19.9501 19.3858C20.4098 18.9075 20.6513 18.3503 20.6513 17.7792C20.6513 17.2035 20.4052 16.6509 19.9362 16.1866L17.387 13.6282ZM18.5887 18.9809L18.5887 18.9809L18.4829 19.084C18.181 19.3719 17.8746 19.6737 17.5867 20.0126C17.1177 20.5141 16.5652 20.7509 15.8408 20.7509C15.7712 20.7509 15.6969 20.7509 15.6273 20.7463C14.2482 20.658 12.9667 20.1194 12.0055 19.6597C9.37744 18.3875 7.06974 16.5813 5.15208 14.2921C3.56873 12.3838 2.51007 10.6193 1.80894 8.72488C1.37712 7.56871 1.21925 6.66792 1.2889 5.8182C1.33533 5.27494 1.54428 4.82455 1.92967 4.43916L3.51301 2.85581C3.74053 2.64222 3.98198 2.52614 4.21879 2.52614C4.51131 2.52614 4.74812 2.70258 4.8967 2.85117L4.91063 2.8651C5.19387 3.12976 5.46318 3.40371 5.74642 3.69624C5.81892 3.77108 5.8926 3.84592 5.96686 3.92135L5.96697 3.92146C6.04011 3.99575 6.11382 4.07062 6.18753 4.14663L7.45513 5.41424C7.94732 5.90643 7.94732 6.36146 7.45513 6.85365C7.41008 6.8987 7.36555 6.94375 7.32119 6.98863C7.23296 7.07789 7.14542 7.16645 7.05581 7.25297C6.66578 7.65229 6.29432 8.02375 5.89036 8.38592C5.88707 8.38921 5.88378 8.39192 5.8807 8.39445C5.87508 8.39908 5.87014 8.40314 5.86714 8.40914C5.46782 8.80846 5.54211 9.19849 5.62569 9.46315L5.63962 9.50494C5.96929 10.3036 6.43362 11.0558 7.13939 11.9519L7.14404 11.9566C8.42557 13.5353 9.77676 14.7657 11.2672 15.7083C11.4576 15.8291 11.6526 15.9266 11.8384 16.0194L11.8384 16.0195L11.8386 16.0195C12.0056 16.1031 12.1634 16.182 12.298 16.2655C12.3073 16.2702 12.3166 16.276 12.3259 16.2818C12.3352 16.2876 12.3445 16.2934 12.3538 16.298C12.5116 16.377 12.6602 16.4141 12.8134 16.4141C13.1988 16.4141 13.4403 16.1727 13.5192 16.0937L15.1072 14.5057C15.2651 14.3479 15.5158 14.1575 15.8083 14.1575C16.0962 14.1575 16.333 14.3386 16.477 14.4964L16.4863 14.5057L19.0447 17.0642C19.5229 17.5378 19.5229 18.0253 19.0493 18.5175C18.9006 18.6776 18.7488 18.8252 18.5887 18.9809ZM11.8895 5.23324C13.106 5.43755 14.2111 6.01331 15.0934 6.89553C15.9756 7.77774 16.5467 8.88284 16.7556 10.0994C16.8067 10.4058 17.0714 10.6194 17.3732 10.6194C17.4066 10.6194 17.4362 10.6157 17.4689 10.6115L17.48 10.6101C17.8236 10.5544 18.0511 10.2294 17.9954 9.88578C17.7447 8.41387 17.0482 7.07197 15.9849 6.00867C14.9216 4.94536 13.5797 4.24887 12.1077 3.99814C11.7641 3.94242 11.4438 4.16994 11.3834 4.5089C11.323 4.84785 11.5459 5.17752 11.8895 5.23324Z" fill="white"/>
</svg>
