<svg width="24" height="29" viewBox="0 0 24 29" fill="none" xmlns="http://www.w3.org/2000/svg">
<path d="M21.375 16.875C21.375 18.7292 20.8252 20.5418 19.795 22.0835C18.7649 23.6252 17.3007 24.8268 15.5877 25.5364C13.8746 26.2459 11.9896 26.4316 10.171 26.0699C8.35246 25.7081 6.682 24.8152 5.37088 23.5041C4.05976 22.193 3.16688 20.5225 2.80514 18.704C2.44341 16.8854 2.62906 15.0004 3.33863 13.2873C4.04821 11.5743 5.24982 10.1101 6.79153 9.07997C8.33325 8.04983 10.1458 7.5 12 7.5H17.7957L14.4353 10.8613L15.75 12.1875L21.375 6.5625L15.75 0.9375L14.4353 2.26313L17.7985 5.625H12C9.77497 5.625 7.59989 6.2848 5.74984 7.52097C3.89979 8.75713 2.45785 10.5141 1.60636 12.5698C0.754874 14.6255 0.532087 16.8875 0.966171 19.0698C1.40025 21.2521 2.47171 23.2566 4.04505 24.83C5.61839 26.4033 7.62295 27.4748 9.80524 27.9088C11.9875 28.3429 14.2495 28.1201 16.3052 27.2686C18.3609 26.4172 20.1179 24.9752 21.354 23.1252C22.5902 21.2751 23.25 19.1 23.25 16.875H21.375Z" fill="#8E8E8E"/>
</svg>
