<svg width="16" height="18" viewBox="0 0 16 18" fill="none" xmlns="http://www.w3.org/2000/svg">
<path d="M14.5038 8.14485C14.1005 7.26578 13.5142 6.47678 12.7816 5.8272L12.1771 5.29003C12.1566 5.2723 12.1319 5.25971 12.1052 5.25338C12.0784 5.24704 12.0505 5.24716 12.0239 5.25371C11.9972 5.26027 11.9726 5.27306 11.9522 5.29097C11.9319 5.30888 11.9164 5.33135 11.9071 5.35643L11.637 6.10684C11.4687 6.57762 11.1592 7.05845 10.7209 7.53123C10.6918 7.56141 10.6585 7.56946 10.6357 7.57147C10.6128 7.57348 10.5775 7.56946 10.5463 7.54129C10.5173 7.51715 10.5027 7.48094 10.5048 7.44472C10.5817 6.23359 10.2077 4.86755 9.38923 3.38079C8.712 2.14552 7.77093 1.18184 6.59512 0.509887L5.73715 0.0210078C5.62497 -0.0433713 5.48163 0.0411262 5.48786 0.167873L5.53356 1.13356C5.56472 1.79344 5.48578 2.37688 5.29881 2.86174C5.0703 3.45523 4.74207 4.00648 4.32243 4.50139C4.0304 4.84534 3.6994 5.15645 3.33566 5.42885C2.45963 6.08102 1.7473 6.91668 1.25202 7.87325C0.75796 8.83815 0.500603 9.9005 0.5 10.9775C0.5 11.9271 0.693199 12.8465 1.07544 13.7136C1.44453 14.5485 1.97716 15.3062 2.64389 15.9448C3.31697 16.5886 4.09807 17.0956 4.96851 17.4476C5.8701 17.8138 6.82571 17.9989 7.81248 17.9989C8.79925 17.9989 9.75486 17.8138 10.6565 17.4496C11.5247 17.0996 12.3143 16.5892 12.9811 15.9468C13.6542 15.303 14.1818 14.5506 14.5495 13.7156C14.9312 12.8509 15.127 11.92 15.125 10.9795C15.125 9.99776 14.9172 9.04414 14.5038 8.14485Z" fill="#FFD481"/>
</svg>
