<svg width="18" height="20" viewBox="0 0 18 20" fill="none" xmlns="http://www.w3.org/2000/svg">
<path fill-rule="evenodd" clip-rule="evenodd" d="M13.6414 5.20303C13.4333 7.82436 11.3096 9.95668 8.90587 9.95668C6.49805 9.95668 4.3748 7.82393 4.17036 5.20217C4.07018 3.87328 4.50594 2.64261 5.39977 1.73709C6.28358 0.84144 7.52893 0.348145 8.90587 0.348145C10.2719 0.348145 11.5163 0.844443 12.4065 1.74567C13.3063 2.65805 13.7448 3.88614 13.6414 5.20303ZM14.5236 12.8222C16.2963 14.0307 17.4245 15.7529 17.7859 17.8031C17.8686 18.2729 17.7564 18.7375 17.4789 19.0777C17.3525 19.2328 17.1939 19.3571 17.0145 19.4414C16.8352 19.5257 16.6397 19.568 16.4423 19.5651H1.37021C1.17294 19.5678 0.977573 19.5254 0.798374 19.441C0.619176 19.3566 0.460671 19.2323 0.334435 19.0773C0.056115 18.7371 -0.0560689 18.2725 0.0265706 17.8026C0.387958 15.7525 1.51622 14.0303 3.2889 12.8217C4.86333 11.7489 6.85824 11.1578 8.90625 11.1578C10.9542 11.1578 12.9492 11.7489 14.5236 12.8222Z" fill="#FFA900"/>
</svg>
